<svg xmlns="http://www.w3.org/2000/svg" viewBox="0 0 200 200" fill="none">
  <circle cx="100" cy="100" r="96" stroke="currentColor" stroke-width="2.5" fill="none" opacity="0.9"/>
  <circle cx="100" cy="100" r="86" stroke="currentColor" stroke-width="1" fill="none" opacity="0.3"/>
  <g transform="translate(100,88)" opacity="0.95">
    <path d="M-38,-22 C-38,-22 -20,-28 0,-20 L0,22 C-20,14 -38,20 -38,20 Z" fill="currentColor" opacity="0.9"/>
    <path d="M38,-22 C38,-22 20,-28 0,-20 L0,22 C20,14 38,20 38,20 Z" fill="currentColor" opacity="0.75"/>
    <line x1="0" y1="-20" x2="0" y2="22" stroke="currentColor" stroke-width="1.5" opacity="0.6"/>
    <line x1="-28" y1="-8" x2="-8" y2="-11" stroke="currentColor" stroke-width="1" opacity="0.4"/>
    <line x1="-28" y1="-1" x2="-8" y2="-4" stroke="currentColor" stroke-width="1" opacity="0.4"/>
    <line x1="-28" y1="6" x2="-8" y2="3" stroke="currentColor" stroke-width="1" opacity="0.4"/>
    <line x1="28" y1="-8" x2="8" y2="-11" stroke="currentColor" stroke-width="1" opacity="0.3"/>
    <line x1="28" y1="-1" x2="8" y2="-4" stroke="currentColor" stroke-width="1" opacity="0.3"/>
    <line x1="28" y1="6" x2="8" y2="3" stroke="currentColor" stroke-width="1" opacity="0.3"/>
    <polygon points="0,-36 3,-29 10,-29 5,-24 7,-17 0,-21 -7,-17 -5,-24 -10,-29 -3,-29" fill="currentColor" opacity="0.85"/>
  </g>
  <text x="100" y="148" text-anchor="middle" font-family="Georgia, serif" font-size="22" font-weight="700" letter-spacing="5" fill="currentColor" opacity="0.95">JDCA</text>
  <line x1="30" y1="155" x2="72" y2="155" stroke="currentColor" stroke-width="0.8" opacity="0.4"/>
  <line x1="128" y1="155" x2="170" y2="155" stroke="currentColor" stroke-width="0.8" opacity="0.4"/>
  <text x="100" y="170" text-anchor="middle" font-family="Arial, sans-serif" font-size="7" font-weight="400" letter-spacing="1.5" fill="currentColor" opacity="0.55">JINNAH DEGREE COLLEGE ASTORE</text>
</svg>
